<svg width="17" height="354" viewBox="0 0 17 354" fill="none" xmlns="http://www.w3.org/2000/svg">
<path d="M12.9727 15.2578V18H3.89062V15.2578H12.9727ZM5.03906 0.9375V18H1.52344V0.9375H5.03906ZM11.7891 7.88672V10.5586H3.89062V7.88672H11.7891ZM12.9609 0.9375V3.69141H3.89062V0.9375H12.9609ZM10.4062 41.5352C10.4062 41.2305 10.3594 40.957 10.2656 40.7148C10.1797 40.4648 10.0156 40.2383 9.77344 40.0352C9.53125 39.8242 9.19141 39.6172 8.75391 39.4141C8.31641 39.2109 7.75 39 7.05469 38.7812C6.28125 38.5312 5.54688 38.25 4.85156 37.9375C4.16406 37.625 3.55469 37.2617 3.02344 36.8477C2.5 36.4258 2.08594 35.9375 1.78125 35.3828C1.48438 34.8281 1.33594 34.1836 1.33594 33.4492C1.33594 32.7383 1.49219 32.0938 1.80469 31.5156C2.11719 30.9297 2.55469 30.4297 3.11719 30.0156C3.67969 29.5938 4.34375 29.2695 5.10938 29.043C5.88281 28.8164 6.73047 28.7031 7.65234 28.7031C8.91016 28.7031 10.0078 28.9297 10.9453 29.3828C11.8828 29.8359 12.6094 30.457 13.125 31.2461C13.6484 32.0352 13.9102 32.9375 13.9102 33.9531H10.418C10.418 33.4531 10.3125 33.0156 10.1016 32.6406C9.89844 32.2578 9.58594 31.957 9.16406 31.7383C8.75 31.5195 8.22656 31.4102 7.59375 31.4102C6.98438 31.4102 6.47656 31.5039 6.07031 31.6914C5.66406 31.8711 5.35938 32.1172 5.15625 32.4297C4.95312 32.7344 4.85156 33.0781 4.85156 33.4609C4.85156 33.75 4.92188 34.0117 5.0625 34.2461C5.21094 34.4805 5.42969 34.6992 5.71875 34.9023C6.00781 35.1055 6.36328 35.2969 6.78516 35.4766C7.20703 35.6562 7.69531 35.832 8.25 36.0039C9.17969 36.2852 9.99609 36.6016 10.6992 36.9531C11.4102 37.3047 12.0039 37.6992 12.4805 38.1367C12.957 38.5742 13.3164 39.0703 13.5586 39.625C13.8008 40.1797 13.9219 40.8086 13.9219 41.5117C13.9219 42.2539 13.7773 42.918 13.4883 43.5039C13.1992 44.0898 12.7812 44.5859 12.2344 44.9922C11.6875 45.3984 11.0352 45.707 10.2773 45.918C9.51953 46.1289 8.67188 46.2344 7.73438 46.2344C6.89062 46.2344 6.05859 46.125 5.23828 45.9062C4.41797 45.6797 3.67188 45.3398 3 44.8867C2.33594 44.4336 1.80469 43.8555 1.40625 43.1523C1.00781 42.4492 0.808594 41.6172 0.808594 40.6562H4.33594C4.33594 41.1875 4.41797 41.6367 4.58203 42.0039C4.74609 42.3711 4.97656 42.668 5.27344 42.8945C5.57812 43.1211 5.9375 43.2852 6.35156 43.3867C6.77344 43.4883 7.23438 43.5391 7.73438 43.5391C8.34375 43.5391 8.84375 43.4531 9.23438 43.2812C9.63281 43.1094 9.92578 42.8711 10.1133 42.5664C10.3086 42.2617 10.4062 41.918 10.4062 41.5352ZM8.16797 67.918H3.82031V65.1758H8.16797C8.83984 65.1758 9.38672 65.0664 9.80859 64.8477C10.2305 64.6211 10.5391 64.3086 10.7344 63.9102C10.9297 63.5117 11.0273 63.0625 11.0273 62.5625C11.0273 62.0547 10.9297 61.582 10.7344 61.1445C10.5391 60.707 10.2305 60.3555 9.80859 60.0898C9.38672 59.8242 8.83984 59.6914 8.16797 59.6914H5.03906V74H1.52344V56.9375H8.16797C9.50391 56.9375 10.6484 57.1797 11.6016 57.6641C12.5625 58.1406 13.2969 58.8008 13.8047 59.6445C14.3125 60.4883 14.5664 61.4531 14.5664 62.5391C14.5664 63.6406 14.3125 64.5938 13.8047 65.3984C13.2969 66.2031 12.5625 66.8242 11.6016 67.2617C10.6484 67.6992 9.50391 67.918 8.16797 67.918ZM12.9727 99.2578V102H3.89062V99.2578H12.9727ZM5.03906 84.9375V102H1.52344V84.9375H5.03906ZM11.7891 91.8867V94.5586H3.89062V91.8867H11.7891ZM12.9609 84.9375V87.6914H3.89062V84.9375H12.9609ZM11.4141 124.34H14.918C14.8477 125.488 14.5312 126.508 13.9688 127.398C13.4141 128.289 12.6367 128.984 11.6367 129.484C10.6445 129.984 9.44922 130.234 8.05078 130.234C6.95703 130.234 5.97656 130.047 5.10938 129.672C4.24219 129.289 3.5 128.742 2.88281 128.031C2.27344 127.32 1.80859 126.461 1.48828 125.453C1.16797 124.445 1.00781 123.316 1.00781 122.066V120.883C1.00781 119.633 1.17188 118.504 1.5 117.496C1.83594 116.48 2.3125 115.617 2.92969 114.906C3.55469 114.195 4.30078 113.648 5.16797 113.266C6.03516 112.883 7.00391 112.691 8.07422 112.691C9.49609 112.691 10.6953 112.949 11.6719 113.465C12.6562 113.98 13.418 114.691 13.957 115.598C14.5039 116.504 14.832 117.535 14.9414 118.691H11.4258C11.3867 118.004 11.25 117.422 11.0156 116.945C10.7812 116.461 10.4258 116.098 9.94922 115.855C9.48047 115.605 8.85547 115.48 8.07422 115.48C7.48828 115.48 6.97656 115.59 6.53906 115.809C6.10156 116.027 5.73438 116.359 5.4375 116.805C5.14062 117.25 4.91797 117.812 4.76953 118.492C4.62891 119.164 4.55859 119.953 4.55859 120.859V122.066C4.55859 122.949 4.625 123.727 4.75781 124.398C4.89062 125.062 5.09375 125.625 5.36719 126.086C5.64844 126.539 6.00781 126.883 6.44531 127.117C6.89062 127.344 7.42578 127.457 8.05078 127.457C8.78516 127.457 9.39062 127.34 9.86719 127.105C10.3438 126.871 10.707 126.523 10.957 126.062C11.2148 125.602 11.3672 125.027 11.4141 124.34ZM5.26172 140.938V158H1.75781V140.938H5.26172ZM8.46094 171.855L3.82031 186H0.0820312L6.42188 168.938H8.80078L8.46094 171.855ZM12.3164 186L7.66406 171.855L7.28906 168.938H9.69141L16.0664 186H12.3164ZM12.1055 179.648V182.402H3.09375V179.648H12.1055ZM12.4922 211.258V214H3.90234V211.258H12.4922ZM5.03906 196.938V214H1.52344V196.938H5.03906ZM5.26172 224.938V242H1.75781V224.938H5.26172ZM6.76172 270H3.04688L3.07031 267.258H6.76172C7.68359 267.258 8.46094 267.051 9.09375 266.637C9.72656 266.215 10.2031 265.602 10.5234 264.797C10.8516 263.992 11.0156 263.02 11.0156 261.879V261.047C11.0156 260.172 10.9219 259.402 10.7344 258.738C10.5547 258.074 10.2852 257.516 9.92578 257.062C9.56641 256.609 9.125 256.27 8.60156 256.043C8.07812 255.809 7.47656 255.691 6.79688 255.691H2.97656V252.938H6.79688C7.9375 252.938 8.98047 253.133 9.92578 253.523C10.8789 253.906 11.7031 254.457 12.3984 255.176C13.0938 255.895 13.6289 256.754 14.0039 257.754C14.3867 258.746 14.5781 259.852 14.5781 261.07V261.879C14.5781 263.09 14.3867 264.195 14.0039 265.195C13.6289 266.195 13.0938 267.055 12.3984 267.773C11.7109 268.484 10.8867 269.035 9.92578 269.426C8.97266 269.809 7.91797 270 6.76172 270ZM5.03906 252.938V270H1.52344V252.938H5.03906ZM8.46094 283.855L3.82031 298H0.0820312L6.42188 280.938H8.80078L8.46094 283.855ZM12.3164 298L7.66406 283.855L7.28906 280.938H9.69141L16.0664 298H12.3164ZM12.1055 291.648V294.402H3.09375V291.648H12.1055ZM6.76172 326H3.04688L3.07031 323.258H6.76172C7.68359 323.258 8.46094 323.051 9.09375 322.637C9.72656 322.215 10.2031 321.602 10.5234 320.797C10.8516 319.992 11.0156 319.02 11.0156 317.879V317.047C11.0156 316.172 10.9219 315.402 10.7344 314.738C10.5547 314.074 10.2852 313.516 9.92578 313.062C9.56641 312.609 9.125 312.27 8.60156 312.043C8.07812 311.809 7.47656 311.691 6.79688 311.691H2.97656V308.938H6.79688C7.9375 308.938 8.98047 309.133 9.92578 309.523C10.8789 309.906 11.7031 310.457 12.3984 311.176C13.0938 311.895 13.6289 312.754 14.0039 313.754C14.3867 314.746 14.5781 315.852 14.5781 317.07V317.879C14.5781 319.09 14.3867 320.195 14.0039 321.195C13.6289 322.195 13.0938 323.055 12.3984 323.773C11.7109 324.484 10.8867 325.035 9.92578 325.426C8.97266 325.809 7.91797 326 6.76172 326ZM5.03906 308.938V326H1.52344V308.938H5.03906ZM12.9727 351.258V354H3.89062V351.258H12.9727ZM5.03906 336.938V354H1.52344V336.938H5.03906ZM11.7891 343.887V346.559H3.89062V343.887H11.7891ZM12.9609 336.938V339.691H3.89062V336.938H12.9609Z" fill="white"/>
</svg>
