<svg width="135" height="135" viewBox="0 0 135 135" fill="none" xmlns="http://www.w3.org/2000/svg">
<circle opacity="0.88" cx="67.5" cy="67.5" r="66.5" fill="#C4C4C4" stroke="#04E1FA" stroke-width="2"/>
<path d="M76.6819 72.5665C76.6819 77.628 72.5845 81.7254 67.523 81.7254C62.4616 81.7254 58.3642 77.628 58.3642 72.5665C58.3642 67.505 62.4616 63.4076 67.523 63.4076C72.5845 63.4076 76.6819 67.505 76.6819 72.5665ZM95.425 49.6126C99.0829 49.6126 102.046 52.5757 102.046 56.2336V73.5873V88.3039C102.046 92.2028 98.8844 95.3645 94.9855 95.3645H40.0606C36.1617 95.3645 33 92.2028 33 88.3039V73.5731V56.2336C33 52.5757 35.9632 49.6126 39.6211 49.6126H52.8632L53.487 46.9755C54.4369 42.8923 58.0806 40 62.2772 40H72.783C76.9797 40 80.6234 42.8923 81.5733 46.9755L82.1829 49.6126H95.425V49.6126ZM46.8092 59.1684C46.8092 57.3395 45.3205 55.8508 43.4916 55.8508C41.6485 55.8508 40.1598 57.3395 40.1598 59.1684C40.1598 60.9974 41.6485 62.4861 43.4774 62.4861C45.3205 62.5002 46.8092 61.0116 46.8092 59.1684ZM83.8559 72.5665C83.8559 63.5494 76.5402 56.2336 67.523 56.2336C58.5059 56.2336 51.1902 63.5494 51.1902 72.5665C51.1902 81.5836 58.5059 88.8994 67.523 88.8994C76.5402 88.8994 83.8559 81.5836 83.8559 72.5665Z" fill="black"/>
</svg>
