<svg width="50" height="50" viewBox="0 0 50 50" fill="none" xmlns="http://www.w3.org/2000/svg">
<circle opacity="0.88" cx="25" cy="25" r="24" fill="white" stroke="#04E1FA" stroke-width="2"/>
<path d="M28.2018 26.588C28.2018 28.2335 26.8697 29.5657 25.2241 29.5657C23.5785 29.5657 22.2464 28.2335 22.2464 26.588C22.2464 24.9424 23.5785 23.6102 25.2241 23.6102C26.8697 23.6102 28.2018 24.9424 28.2018 26.588ZM34.2955 19.1252C35.4848 19.1252 36.4481 20.0886 36.4481 21.2778V26.9198V31.7045C36.4481 32.9721 35.4202 34 34.1526 34H16.2955C15.0279 34 14 32.9721 14 31.7045V26.9152V21.2778C14 20.0886 14.9634 19.1252 16.1526 19.1252H20.4579L20.6607 18.2679C20.9695 16.9403 22.1542 16 23.5186 16H26.9342C28.2986 16 29.4832 16.9403 29.7921 18.2679L29.9903 19.1252H34.2955V19.1252ZM18.4896 22.232C18.4896 21.6374 18.0056 21.1534 17.411 21.1534C16.8118 21.1534 16.3278 21.6374 16.3278 22.232C16.3278 22.8266 16.8118 23.3106 17.4064 23.3106C18.0056 23.3152 18.4896 22.8312 18.4896 22.232ZM30.5342 26.588C30.5342 23.6563 28.1557 21.2778 25.2241 21.2778C22.2924 21.2778 19.914 23.6563 19.914 26.588C19.914 29.5196 22.2924 31.8981 25.2241 31.8981C28.1557 31.8981 30.5342 29.5196 30.5342 26.588Z" fill="black"/>
</svg>
