<svg width="300" height="300" viewBox="0 0 300 300" fill="none" xmlns="http://www.w3.org/2000/svg">
<rect width="300" height="300" fill="black"/>
<circle opacity="0.88" cx="150.5" cy="145.5" r="66.5" fill="#C4C4C4" stroke="#04E1FA" stroke-width="2"/>
<path d="M159.682 150.567C159.682 155.628 155.585 159.725 150.523 159.725C145.462 159.725 141.364 155.628 141.364 150.567C141.364 145.505 145.462 141.408 150.523 141.408C155.585 141.408 159.682 145.505 159.682 150.567ZM178.425 127.613C182.083 127.613 185.046 130.576 185.046 134.234V151.587V166.304C185.046 170.203 181.884 173.364 177.986 173.364H123.061C119.162 173.364 116 170.203 116 166.304V151.573V134.234C116 130.576 118.963 127.613 122.621 127.613H135.863L136.487 124.975C137.437 120.892 141.081 118 145.277 118H155.783C159.98 118 163.623 120.892 164.573 124.975L165.183 127.613H178.425V127.613ZM129.809 137.168C129.809 135.339 128.321 133.851 126.492 133.851C124.648 133.851 123.16 135.339 123.16 137.168C123.16 138.997 124.648 140.486 126.477 140.486C128.321 140.5 129.809 139.012 129.809 137.168ZM166.856 150.567C166.856 141.549 159.54 134.234 150.523 134.234C141.506 134.234 134.19 141.549 134.19 150.567C134.19 159.584 141.506 166.899 150.523 166.899C159.54 166.899 166.856 159.584 166.856 150.567Z" fill="black"/>
</svg>
