<svg width="21" height="15" viewBox="0 0 21 15" fill="none" xmlns="http://www.w3.org/2000/svg">
<path d="M10.5 0C5.95291 0 2.02632 2.65651 0.174515 6.49585C-0.0581717 6.98061 -0.0581717 7.56233 0.174515 8.04709C2.02632 11.8864 5.95291 14.5429 10.5 14.5429C15.0471 14.5429 18.9737 11.8864 20.8255 8.04709C21.0582 7.56233 21.0582 6.98061 20.8255 6.49585C18.9737 2.65651 15.0471 0 10.5 0ZM10.5 11.6343C8.09557 11.6343 6.13712 9.6759 6.13712 7.27147C6.13712 4.86704 8.09557 2.90859 10.5 2.90859C12.9044 2.90859 14.8629 4.86704 14.8629 7.27147C14.8629 9.6759 12.9044 11.6343 10.5 11.6343Z" fill="#004040"/>
<path d="M10.5001 9.88914C11.9458 9.88914 13.1178 8.71715 13.1178 7.27141C13.1178 5.82568 11.9458 4.65369 10.5001 4.65369C9.05432 4.65369 7.88232 5.82568 7.88232 7.27141C7.88232 8.71715 9.05432 9.88914 10.5001 9.88914Z" fill="#004040"/>
</svg>
