<svg width="17" height="12" viewBox="0 0 17 12" fill="none" xmlns="http://www.w3.org/2000/svg">
<path d="M8.1225 0C4.605 0 1.5675 2.055 0.135 5.025C-0.045 5.4 -0.045 5.85 0.135 6.225C1.5675 9.195 4.605 11.25 8.1225 11.25C11.64 11.25 14.6775 9.195 16.11 6.225C16.29 5.85 16.29 5.4 16.11 5.025C14.6775 2.055 11.64 0 8.1225 0ZM8.1225 9C6.2625 9 4.7475 7.485 4.7475 5.625C4.7475 3.765 6.2625 2.25 8.1225 2.25C9.9825 2.25 11.4975 3.765 11.4975 5.625C11.4975 7.485 9.9825 9 8.1225 9Z" fill="#DDFCFC"/>
<path d="M8.12266 7.64997C9.24103 7.64997 10.1477 6.74335 10.1477 5.62498C10.1477 4.5066 9.24103 3.59998 8.12266 3.59998C7.00428 3.59998 6.09766 4.5066 6.09766 5.62498C6.09766 6.74335 7.00428 7.64997 8.12266 7.64997Z" fill="#DDFCFC"/>
</svg>
