<svg width="60" height="60" viewBox="0 0 60 60" fill="none" xmlns="http://www.w3.org/2000/svg">
<path d="M27.6923 57.6923C27.6923 56.4178 28.7255 55.3846 30 55.3846C31.2745 55.3846 32.3077 56.4178 32.3077 57.6923C32.3077 58.9668 31.2745 60 30 60C28.7255 60 27.6923 58.9668 27.6923 57.6923Z" fill="#04E1FA"/>
<path d="M41.5385 57.6923C41.5385 56.4178 42.5717 55.3846 43.8462 55.3846C45.1207 55.3846 46.1538 56.4178 46.1538 57.6923C46.1538 58.9668 45.1207 60 43.8462 60C42.5717 60 41.5385 58.9668 41.5385 57.6923Z" fill="#04E1FA"/>
<path d="M55.3846 57.6923C55.3846 56.4178 56.4178 55.3846 57.6923 55.3846C58.9668 55.3846 60 56.4178 60 57.6923C60 58.9668 58.9668 60 57.6923 60C56.4178 60 55.3846 58.9668 55.3846 57.6923Z" fill="#04E1FA"/>
<path d="M55.3846 43.8462C55.3846 42.5717 56.4178 41.5385 57.6923 41.5385C58.9668 41.5385 60 42.5717 60 43.8462C60 45.1207 58.9668 46.1538 57.6923 46.1538C56.4178 46.1538 55.3846 45.1207 55.3846 43.8462Z" fill="#04E1FA"/>
<path d="M41.5385 43.8462C41.5385 42.5717 42.5717 41.5385 43.8462 41.5385C45.1207 41.5385 46.1538 42.5717 46.1538 43.8462C46.1538 45.1207 45.1207 46.1538 43.8462 46.1538C42.5717 46.1538 41.5385 45.1207 41.5385 43.8462Z" fill="#04E1FA"/>
<path d="M41.5385 30C41.5385 28.7255 42.5717 27.6923 43.8462 27.6923C45.1207 27.6923 46.1538 28.7255 46.1538 30C46.1538 31.2745 45.1207 32.3077 43.8462 32.3077C42.5717 32.3077 41.5385 31.2745 41.5385 30Z" fill="#04E1FA"/>
<path d="M41.5385 16.1538C41.5385 14.8793 42.5717 13.8462 43.8462 13.8462C45.1207 13.8462 46.1538 14.8793 46.1538 16.1538C46.1538 17.4283 45.1207 18.4615 43.8462 18.4615C42.5717 18.4615 41.5385 17.4283 41.5385 16.1538Z" fill="#04E1FA"/>
<path d="M13.8462 57.6923C13.8462 56.4178 14.8793 55.3846 16.1538 55.3846C17.4283 55.3846 18.4615 56.4178 18.4615 57.6923C18.4615 58.9668 17.4283 60 16.1538 60C14.8793 60 13.8462 58.9668 13.8462 57.6923Z" fill="#04E1FA"/>
<path d="M0 57.6923C0 56.4178 1.03319 55.3846 2.30769 55.3846C3.5822 55.3846 4.61538 56.4178 4.61538 57.6923C4.61538 58.9668 3.5822 60 2.30769 60C1.03319 60 0 58.9668 0 57.6923Z" fill="#04E1FA"/>
<path d="M0 43.8462C0 42.5717 1.03319 41.5385 2.30769 41.5385C3.5822 41.5385 4.61538 42.5717 4.61538 43.8462C4.61538 45.1207 3.5822 46.1538 2.30769 46.1538C1.03319 46.1538 0 45.1207 0 43.8462Z" fill="#04E1FA"/>
<path d="M13.8462 43.8462C13.8462 42.5717 14.8793 41.5385 16.1538 41.5385C17.4283 41.5385 18.4615 42.5717 18.4615 43.8462C18.4615 45.1207 17.4283 46.1538 16.1538 46.1538C14.8793 46.1538 13.8462 45.1207 13.8462 43.8462Z" fill="#04E1FA"/>
<path d="M13.8462 30C13.8462 28.7255 14.8793 27.6923 16.1538 27.6923C17.4283 27.6923 18.4615 28.7255 18.4615 30C18.4615 31.2745 17.4283 32.3077 16.1538 32.3077C14.8793 32.3077 13.8462 31.2745 13.8462 30Z" fill="#04E1FA"/>
<path d="M27.6923 30C27.6923 28.7255 28.7255 27.6923 30 27.6923C31.2745 27.6923 32.3077 28.7255 32.3077 30C32.3077 31.2745 31.2745 32.3077 30 32.3077C28.7255 32.3077 27.6923 31.2745 27.6923 30Z" fill="#04E1FA"/>
<path d="M27.6923 16.1538C27.6923 14.8793 28.7255 13.8462 30 13.8462C31.2745 13.8462 32.3077 14.8793 32.3077 16.1538C32.3077 17.4283 31.2745 18.4615 30 18.4615C28.7255 18.4615 27.6923 17.4283 27.6923 16.1538Z" fill="#04E1FA"/>
<path d="M0 30C0 28.7255 1.03319 27.6923 2.30769 27.6923C3.5822 27.6923 4.61538 28.7255 4.61538 30C4.61538 31.2745 3.5822 32.3077 2.30769 32.3077C1.03319 32.3077 0 31.2745 0 30Z" fill="#04E1FA"/>
<path d="M0 16.1538C0 14.8793 1.03319 13.8462 2.30769 13.8462C3.5822 13.8462 4.61538 14.8793 4.61538 16.1538C4.61538 17.4283 3.5822 18.4615 2.30769 18.4615C1.03319 18.4615 0 17.4283 0 16.1538Z" fill="#04E1FA"/>
<path d="M0 2.30769C0 1.03319 1.03319 0 2.30769 0C3.5822 0 4.61538 1.03319 4.61538 2.30769C4.61538 3.5822 3.5822 4.61538 2.30769 4.61538C1.03319 4.61538 0 3.5822 0 2.30769Z" fill="#04E1FA"/>
<path d="M13.8462 16.1538C13.8462 14.8793 14.8793 13.8462 16.1538 13.8462C17.4283 13.8462 18.4615 14.8793 18.4615 16.1538C18.4615 17.4283 17.4283 18.4615 16.1538 18.4615C14.8793 18.4615 13.8462 17.4283 13.8462 16.1538Z" fill="#04E1FA"/>
<path d="M13.8462 2.30769C13.8462 1.03319 14.8793 0 16.1538 0C17.4283 0 18.4615 1.03319 18.4615 2.30769C18.4615 3.5822 17.4283 4.61538 16.1538 4.61538C14.8793 4.61538 13.8462 3.5822 13.8462 2.30769Z" fill="#04E1FA"/>
<path d="M27.6923 43.8462C27.6923 42.5717 28.7255 41.5385 30 41.5385C31.2745 41.5385 32.3077 42.5717 32.3077 43.8462C32.3077 45.1207 31.2745 46.1538 30 46.1538C28.7255 46.1538 27.6923 45.1207 27.6923 43.8462Z" fill="#04E1FA"/>
</svg>
