<svg width="701" height="701" viewBox="0 0 701 701" fill="none" xmlns="http://www.w3.org/2000/svg">
<path d="M478.334 116.672C469.053 116.672 460.146 120.359 453.585 126.922C447.024 133.484 443.335 142.391 443.335 151.671C443.335 160.951 447.022 169.859 453.585 176.421C460.147 182.982 469.054 186.671 478.334 186.671C487.614 186.671 496.522 182.983 503.084 176.421C509.645 169.858 513.334 160.951 513.334 151.671C513.334 142.391 509.646 133.483 503.084 126.922C496.521 120.361 487.614 116.672 478.334 116.672V116.672ZM478.334 163.339C473.616 163.339 469.36 160.495 467.558 156.135C465.751 151.776 466.746 146.761 470.084 143.422C473.423 140.083 478.438 139.089 482.798 140.896C487.157 142.698 490.001 146.953 490.001 151.672C490.001 154.766 488.772 157.734 486.584 159.922C484.397 162.109 481.428 163.339 478.334 163.339Z" fill="#04E1FA"/>
<path d="M46.6676 175.005H71.0529C72.6622 185.38 76.657 195.245 82.7196 203.823L48.8862 237.541V237.536C46.678 239.729 45.4332 242.713 45.4332 245.823C45.4332 248.932 46.678 251.916 48.8862 254.104C51.0841 256.286 54.0685 257.505 57.1674 257.489C60.2664 257.505 63.2508 256.286 65.4486 254.104L99.1673 220.385V220.39C107.777 226.39 117.626 230.375 127.985 232.057V280.005C127.985 286.448 133.209 291.672 139.651 291.672C146.094 291.672 151.318 286.448 151.318 280.005V232.286C161.677 230.609 171.526 226.62 180.135 220.62L213.854 254.338H213.849C216.052 256.521 219.031 257.739 222.135 257.724C225.234 257.739 228.213 256.521 230.416 254.338C232.625 252.146 233.869 249.166 233.869 246.057C233.869 242.943 232.625 239.963 230.416 237.771L196.583 204.052V204.057C202.646 195.479 206.635 185.615 208.25 175.24H233.332C239.775 175.24 244.999 170.016 244.999 163.573C244.999 157.131 239.775 151.907 233.332 151.907H208.947C207.338 141.526 203.343 131.667 197.28 123.089L231.114 89.3706C235.692 84.7976 235.692 77.381 231.114 72.8079C226.541 68.2298 219.124 68.2298 214.551 72.8079L180.832 106.527V106.521C172.223 100.521 162.374 96.537 152.015 94.8547V46.672C152.015 40.2294 146.791 35.0054 140.348 35.0054C133.906 35.0054 128.682 40.2294 128.682 46.672V94.3907C118.322 96.0678 108.474 100.057 99.8644 106.057L65.8017 72.5734C61.2236 67.9952 53.8069 67.9952 49.2337 72.5734C44.6556 77.1463 44.6556 84.563 49.2337 89.1414L83.067 122.86V122.855C77.0045 131.433 73.0097 141.297 71.4004 151.672H46.6657C40.223 151.672 34.999 156.896 34.999 163.339C34.999 169.781 40.223 175.005 46.6657 175.005L46.6676 175.005ZM140.001 116.672C152.376 116.672 164.246 121.589 173.001 130.339C181.751 139.094 186.668 150.964 186.668 163.339C186.668 175.713 181.751 187.584 173.001 196.339C164.246 205.089 152.376 210.005 140.001 210.005C127.626 210.005 115.756 205.089 107.001 196.339C98.2509 187.584 93.3342 175.713 93.3342 163.339C93.3342 150.964 98.2509 139.093 107.001 130.339C115.756 121.589 127.626 116.672 140.001 116.672Z" fill="#04E1FA"/>
<path d="M128.335 175.005C128.335 181.448 133.559 186.672 140.001 186.672C146.444 186.672 151.668 181.448 151.668 175.005C158.111 175.005 163.335 169.781 163.335 163.339C163.335 156.896 158.111 151.672 151.668 151.672C151.668 145.229 146.444 140.005 140.001 140.005C133.559 140.005 128.335 145.229 128.335 151.672C121.892 151.672 116.668 156.896 116.668 163.339C116.668 169.781 121.892 175.005 128.335 175.005Z" fill="#04E1FA"/>
<path d="M48.308 326.672H128.339V431.672C128.339 434.766 129.568 437.735 131.755 439.922C133.943 442.109 136.912 443.339 140.005 443.339H361.672C368.115 443.339 373.339 438.115 373.339 431.672C373.339 425.229 368.115 420.005 361.672 420.005H151.672V326.672H231.703C244.505 326.641 256.771 321.542 265.823 312.489C274.875 303.437 279.973 291.172 280.005 278.369V48.3027C279.974 35.5005 274.875 23.2347 265.823 14.1827C256.771 5.13053 244.505 0.032 231.703 0H48.3027C35.5005 0.0312507 23.2347 5.13027 14.1827 14.1827C5.13053 23.2348 0.032 35.5 0 48.3027V278.369C0.0312507 291.171 5.13027 303.437 14.1827 312.489C23.2348 321.541 35.5 326.64 48.3027 326.672H48.308ZM23.3387 48.312C23.3387 41.6869 25.9689 35.338 30.6512 30.656C35.3335 25.974 41.6824 23.3435 48.3072 23.3435H231.707C238.332 23.3435 244.681 25.9737 249.363 30.656C254.045 35.3383 256.676 41.6872 256.676 48.312V278.379C256.676 285.004 254.045 291.353 249.363 296.035C244.681 300.717 238.332 303.347 231.707 303.347H48.3072C41.6821 303.347 35.3332 300.717 30.6512 296.035C25.9692 291.352 23.3387 285.003 23.3387 278.379V48.312Z" fill="#04E1FA"/>
<path d="M645.401 583.339H478.334V548.339H595.001C604.282 548.339 613.189 544.651 619.75 538.089C626.312 531.526 630 522.619 630 513.339C629.974 510.871 629.698 508.407 629.183 505.991C661.319 468.657 681.423 422.485 686.849 373.527C692.276 324.568 682.782 275.111 659.599 231.647C636.421 188.183 600.645 152.74 556.968 129.975C552.218 112.756 541.957 97.5625 527.76 86.7345C513.557 75.9012 496.192 70.0265 478.333 70.0052C466.208 70.0104 454.245 72.7604 443.333 78.0573V63.9373C443.333 56.2654 440.286 48.9066 434.859 43.4786C429.432 38.0516 422.073 35.0046 414.401 35.0046H408.333V11.6713C408.333 8.57757 407.104 5.60877 404.916 3.42131C402.729 1.23384 399.76 0.00463867 396.666 0.00463867H350C343.557 0.00463867 338.333 5.22864 338.333 11.6713V35.0046H332.265C324.593 35.0046 317.235 38.0516 311.807 43.4786C306.38 48.9057 303.333 56.265 303.333 63.9373V285.604C303.296 294.797 307.624 303.453 314.999 308.937V326.672H309.166C298.744 326.672 289.119 332.229 283.906 341.256C278.698 350.282 278.698 361.396 283.906 370.423C289.12 379.449 298.745 385.007 309.166 385.007H437.499C447.921 385.007 457.546 379.449 462.759 370.423C467.968 361.397 467.968 350.283 462.759 341.256C457.546 332.23 447.921 326.672 437.499 326.672H431.666V309.287C439.057 303.818 443.39 295.151 443.333 285.953V225.287C454.244 230.584 466.207 233.334 478.333 233.339C499.062 233.297 518.999 225.37 534.098 211.172C578.234 240.839 605.161 290.136 606.275 343.303C607.39 396.469 582.551 446.849 539.697 478.343H291.67C279.165 478.343 267.613 485.015 261.358 495.843C255.108 506.671 255.108 520.015 261.358 530.843C267.613 541.671 279.165 548.343 291.67 548.343H408.337V583.343H241.27C226.801 583.374 212.931 589.135 202.697 599.369C192.462 609.604 186.702 623.473 186.67 637.943V688.344C186.67 691.438 187.899 694.407 190.087 696.594C192.274 698.782 195.243 700.011 198.337 700.011H688.337C691.43 700.011 694.399 698.782 696.587 696.594C698.774 694.407 700.003 691.438 700.003 688.344V637.943C699.972 623.473 694.212 609.604 683.977 599.369C673.742 589.135 659.873 583.375 645.403 583.343L645.401 583.339ZM361.668 23.3388H385.001V35.0054H361.668V23.3388ZM326.668 63.9374C326.637 62.4426 327.215 61 328.272 59.9426C329.329 58.8853 330.772 58.3072 332.267 58.3385H413.933C415.428 58.3073 416.871 58.8854 417.928 59.9426C418.985 60.9999 419.569 62.4426 419.532 63.9374V94.6201C404.642 109.875 396.303 130.355 396.303 151.672C396.303 172.989 404.642 193.469 419.532 208.724V286.073C419.454 288.626 417.694 290.813 415.22 291.438C414.798 291.542 414.355 291.542 413.933 291.438H332.267C330.772 291.469 329.329 290.891 328.272 289.834C327.215 288.777 326.636 287.334 326.668 285.839L326.668 63.9374ZM443.334 355.604C443.334 357.151 442.72 358.635 441.626 359.729C440.532 360.823 439.048 361.437 437.501 361.437H309.168C305.944 361.437 303.334 358.828 303.334 355.604C303.334 352.385 305.944 349.771 309.168 349.771H437.501C439.09 349.771 440.61 350.417 441.709 351.563C442.814 352.708 443.397 354.25 443.334 355.839V355.604ZM338.334 326.672V315.005H408.334V326.672H338.334ZM478.334 210.005C462.865 210.005 448.028 203.86 437.084 192.923C426.146 181.98 420.001 167.141 420.001 151.672C420.001 136.203 426.147 121.365 437.084 110.421C448.026 99.484 462.865 93.3388 478.334 93.3388C493.804 93.3388 508.641 99.4846 519.585 110.421C530.523 121.364 536.668 136.203 536.668 151.672C536.668 167.141 530.522 181.979 519.585 192.923C508.642 203.86 493.804 210.005 478.334 210.005ZM630.001 346.859C629.751 285.223 599.214 227.645 548.334 192.859C554.595 182.177 558.345 170.208 559.303 157.859C594.991 179.859 623.689 211.547 642.049 249.233C660.409 286.921 667.674 329.051 663.002 370.712C658.33 412.368 641.909 451.843 615.653 484.524C609.59 480.342 602.366 478.18 595.002 478.342H575.638C610.403 443.41 629.95 396.145 630.002 346.858L630.001 346.859ZM280.001 513.339C280.001 506.896 285.225 501.672 291.668 501.672H595.001C601.444 501.672 606.668 506.896 606.668 513.339C606.668 519.781 601.444 525.005 595.001 525.005H291.668C285.225 525.005 280.001 519.781 280.001 513.339ZM431.668 548.339H455.001V583.339H431.668V548.339ZM676.668 676.672H210.001V637.937C210.001 629.646 213.293 621.692 219.157 615.828C225.022 609.964 232.975 606.672 241.267 606.672H645.4C653.692 606.672 661.645 609.964 667.509 615.828C673.374 621.693 676.666 629.645 676.666 637.937L676.668 676.672Z" fill="#04E1FA"/>
</svg>
