<svg width="724" height="724" viewBox="0 0 724 724" fill="none" xmlns="http://www.w3.org/2000/svg">
<path d="M700 700H723.333V723.333H700V700Z" fill="#04E1FA"/>
<path d="M0 700H23.3333V723.333H0V700Z" fill="#04E1FA"/>
<path d="M626.746 630H590.558C628.345 604.907 653.334 561.995 653.334 513.333C653.334 444.631 603.553 387.448 538.194 375.68C542.793 364.295 548.496 353.305 555.402 342.945L569.714 321.476L550.302 308.539L535.99 330.008C526.902 343.648 519.636 358.216 514.105 373.383C513.834 373.372 513.589 373.336 513.334 373.336C436.137 373.336 373.334 436.138 373.334 513.336C373.334 561.997 398.324 604.909 436.11 630.002H422.241L363.908 606.669H286.861C267.168 571.669 256.668 532.19 256.668 491.976V396.669H303.334C341.938 396.669 373.334 365.273 373.334 326.669C373.334 320.273 372.402 314.117 370.793 308.237C400.282 295.482 420.001 266.316 420.001 233.336C420.001 200.716 400.73 172.586 373.022 159.508C371.366 123.748 347.194 93.6744 312.959 84.5491C303.371 35.7944 260.517 0.00244141 210.001 0.00244141C159.938 0.00244141 118.011 35.2478 107.569 82.2051C66.8139 86.7572 35.0006 121.382 35.0006 163.336C35.0006 164.362 35.1152 165.367 35.1516 166.393C13.3596 181.56 0.000976562 206.502 0.000976562 233.336C0.000976562 266.314 19.7036 295.508 49.2463 308.237C46.689 317.222 46.0275 326.388 47.2723 335.653C51.9754 370.429 83.2563 396.669 120.018 396.669H163.335V491.976C163.335 532.189 152.835 571.669 133.142 606.669H95.891L72.5683 700.002H46.667V723.336H676.667V700.002H650.068L626.746 630ZM396.666 513.333C396.666 451.14 445.63 400.297 507.021 396.979C504.417 408.177 502.797 419.624 502.11 431.219C476.839 429.245 460.364 421.292 460.178 421.208L449.771 442.104C450.849 442.62 476.011 455 513.334 455C550.657 455 575.818 442.62 576.881 442.11L566.438 421.24C566.261 421.334 550.407 429.079 525.443 431.157C526.188 419.943 528.058 408.922 530.834 398.141C586.87 406.62 630.001 454.964 630.001 513.334C630.001 577.662 577.662 630.001 513.334 630.001C449.006 630.001 396.667 577.662 396.667 513.334L396.666 513.333ZM186.666 491.973V373.333H120.016C94.8757 373.333 73.5464 355.787 70.3957 332.511C69.1926 323.657 70.7238 314.823 74.9321 306.26L81.281 293.343L67.3277 289.807C41.4264 283.245 23.333 260.026 23.333 233.334C23.333 217.724 29.6352 202.99 40.3637 192.188C52.0564 222.995 81.8064 245 116.666 245V221.667C84.4997 221.667 58.333 195.5 58.333 163.334C58.333 135.136 78.4477 111.568 105.082 106.167C105.28 124.156 110.03 141.834 118.978 157.35L139.186 145.693C132.077 133.397 128.332 119.313 128.332 105C128.332 59.9694 164.978 23.3335 209.999 23.3335C251.51 23.3335 286.368 54.4014 291.082 95.6094L292.087 104.417L300.847 105.807C325.65 109.74 344.503 128.605 348.962 152.438C345.472 151.98 341.946 151.667 338.332 151.667C293.31 151.667 256.665 188.303 256.665 233.334H279.998C279.998 201.167 306.165 175.001 338.332 175.001C370.498 175.001 396.665 201.167 396.665 233.334C396.665 257.099 382.326 278.053 360.968 287.022C348.332 268.71 327.228 256.667 303.332 256.667V280.001C329.066 280.001 349.998 300.933 349.998 326.667C349.998 352.402 329.066 373.334 303.332 373.334H256.665V318.537L278.04 286.474L258.628 273.537L233.33 311.463V491.97C233.33 531.861 242.684 571.106 260.398 606.663H159.596C177.309 571.106 186.664 531.861 186.664 491.975L186.666 491.973ZM114.109 630H359.416L417.749 653.333H609.922L625.485 700H96.6184L114.109 630Z" fill="#04E1FA"/>
<path d="M128.333 653.333H151.666V676.667H128.333V653.333Z" fill="#04E1FA"/>
<path d="M233.333 653.333H256.666V676.667H233.333V653.333Z" fill="#04E1FA"/>
<path d="M315 653.333H338.333V676.667H315V653.333Z" fill="#04E1FA"/>
<path d="M140.826 214.333L163.332 270.568V349.995H186.665V266.088L162.504 205.656L140.826 214.333Z" fill="#04E1FA"/>
<path d="M151.667 105H175C175 85.7027 190.703 70.0001 210 70.0001V46.6667C177.834 46.6667 151.667 72.8334 151.667 105Z" fill="#04E1FA"/>
<path d="M443.333 513.333H420C420 564.797 461.869 606.667 513.333 606.667V583.333C474.729 583.333 443.333 551.937 443.333 513.333Z" fill="#04E1FA"/>
<path d="M616.054 163.333H583.33V0H559.996V186.667H573.939L536.663 246.317L499.387 186.667H513.33V70H489.996V163.333H457.272L536.663 290.349L616.054 163.333Z" fill="#04E1FA"/>
<path d="M490 23.3333H513.333V46.6666H490V23.3333Z" fill="#04E1FA"/>
</svg>
