<svg width="724" height="724" viewBox="0 0 724 724" fill="none" xmlns="http://www.w3.org/2000/svg">
<path d="M105.004 583.333C92.6286 583.333 80.7582 588.25 72.0036 597C63.2536 605.755 58.3369 617.625 58.3369 630C58.3369 642.375 63.2536 654.245 72.0036 663C80.7588 671.75 92.6289 676.667 105.004 676.667C117.378 676.667 129.249 671.75 138.004 663C146.754 654.245 151.67 642.375 151.67 630C151.67 617.625 146.754 605.755 138.004 597C129.248 588.25 117.378 583.333 105.004 583.333ZM105.004 653.333C98.8161 653.333 92.8785 650.875 88.5036 646.5C84.1286 642.125 81.6702 636.188 81.6702 630C81.6702 623.813 84.1286 617.875 88.5036 613.5C92.8785 609.125 98.8161 606.667 105.004 606.667C111.191 606.667 117.129 609.125 121.504 613.5C125.879 617.875 128.337 623.813 128.337 630C128.337 636.188 125.879 642.125 121.504 646.5C117.129 650.875 111.191 653.333 105.004 653.333Z" fill="#04E1FA"/>
<path d="M221.67 606.667C212.389 606.667 203.482 610.354 196.921 616.917C190.36 623.479 186.671 632.386 186.671 641.666C186.671 650.946 190.358 659.854 196.921 666.415C203.483 672.977 212.39 676.665 221.67 676.665C230.95 676.665 239.858 672.978 246.42 666.415C252.981 659.853 256.67 650.946 256.67 641.666C256.67 632.386 252.982 623.478 246.42 616.917C239.857 610.355 230.95 606.667 221.67 606.667ZM221.67 653.333C216.951 653.333 212.696 650.49 210.894 646.13C209.087 641.771 210.082 636.755 213.42 633.417C216.759 630.078 221.774 629.083 226.134 630.891C230.493 632.693 233.337 636.948 233.337 641.667C233.337 644.76 232.108 647.729 229.92 649.917C227.733 652.104 224.764 653.333 221.67 653.333Z" fill="#04E1FA"/>
<path d="M291.67 536.667C282.389 536.667 273.482 540.354 266.921 546.917C260.36 553.479 256.671 562.386 256.671 571.666C256.671 580.946 260.358 589.854 266.921 596.415C273.483 602.977 282.39 606.665 291.67 606.665C300.95 606.665 309.858 602.978 316.42 596.415C322.981 589.853 326.67 580.946 326.67 571.666C326.67 562.386 322.982 553.478 316.42 546.917C309.857 540.355 300.95 536.667 291.67 536.667ZM291.67 583.333C286.951 583.333 282.696 580.49 280.894 576.13C279.087 571.771 280.082 566.755 283.42 563.417C286.759 560.078 291.774 559.083 296.134 560.891C300.493 562.693 303.337 566.948 303.337 571.667C303.337 574.76 302.108 577.729 299.92 579.917C297.733 582.104 294.764 583.333 291.67 583.333Z" fill="#04E1FA"/>
<path d="M116.671 536.667H140.004V560H116.671V536.667Z" fill="#04E1FA"/>
<path d="M163.337 536.667H186.67V560H163.337V536.667Z" fill="#04E1FA"/>
<path d="M350.004 653.333H373.337V676.667H350.004V653.333Z" fill="#04E1FA"/>
<path d="M303.337 653.333H326.67V676.667H303.337V653.333Z" fill="#04E1FA"/>
<path d="M606.671 499.853V420.004H630.004V396.671H490.004V420.004H513.338V499.853C480.332 514.255 455.827 543.099 446.942 577.999C438.061 612.9 445.791 649.947 467.895 678.379C489.994 706.811 523.988 723.441 560.004 723.441C596.02 723.441 630.015 706.811 652.114 678.379C674.218 649.947 681.947 612.9 673.067 577.999C664.182 543.097 639.676 514.253 606.671 499.853V499.853ZM583.338 420.004V443.337H536.671V420.004H583.338ZM528.89 518.775C533.551 517.129 536.671 512.717 536.671 507.775V466.671H583.338V507.775C583.338 512.717 586.457 517.129 591.119 518.775C620.307 529.202 642.411 553.436 650.119 583.452C641.27 583.712 632.853 587.337 626.588 593.593L616.927 603.254C614.734 605.442 611.765 606.671 608.666 606.671H604.677C601.578 606.671 598.609 605.442 596.416 603.254L586.755 593.593C580.203 587.009 571.291 583.317 562 583.337H558.01C548.719 583.317 539.808 587.009 533.256 593.593L523.594 603.254C521.402 605.442 518.433 606.671 515.334 606.671H511.344C508.245 606.671 505.277 605.442 503.084 603.254L493.422 593.593C487.157 587.337 478.74 583.712 469.892 583.452C477.6 553.436 499.704 529.201 528.892 518.775H528.89ZM560.004 700.001C535.259 699.975 511.535 690.132 494.04 672.632C476.54 655.137 466.696 631.413 466.671 606.668H468.666C471.765 606.668 474.734 607.897 476.926 610.085L486.588 619.746C493.135 626.34 502.052 630.033 511.342 630.001H515.332C524.624 630.033 533.54 626.34 540.087 619.746L549.748 610.085C551.941 607.897 554.91 606.668 558.008 606.668H561.998C565.097 606.668 568.066 607.897 570.258 610.085L579.92 619.746C586.467 626.34 595.384 630.033 604.675 630.001H608.664C617.956 630.033 626.872 626.34 633.419 619.746L643.08 610.085C645.273 607.897 648.242 606.668 651.341 606.668H653.336C653.31 631.413 643.466 655.137 625.966 672.632C608.472 690.132 584.748 699.976 560.002 700.001H560.004Z" fill="#04E1FA"/>
<path d="M525.004 653.333H548.337V676.667H525.004V653.333Z" fill="#04E1FA"/>
<path d="M571.67 653.333H595.003V676.667H571.67V653.333Z" fill="#04E1FA"/>
<path d="M540.937 105L554.937 81.6668H611.729L643.333 134.344C645.443 137.855 649.24 140 653.333 140H723.333V116.667H659.937L631.937 70.0004L663.333 17.6777L643.339 5.66209L611.729 58.3341H554.937L523.333 5.65675C521.224 2.14635 517.427 0.000488281 513.333 0.000488281H443.333V23.3338H506.729L534.729 70.0005L506.729 116.667H449.937L418.333 63.9898C416.224 60.4794 412.427 58.3336 408.333 58.3336H338.333C334.24 58.3336 330.443 60.4794 328.333 63.9898L296.729 116.667H233.333C229.24 116.667 225.443 118.813 223.333 122.323L188.333 180.657C187.245 182.474 186.667 184.553 186.667 186.667H151.667C140.563 186.662 130.115 191.922 123.511 200.85C116.907 209.772 114.933 221.303 118.183 231.918C121.433 242.532 129.531 250.98 140 254.672V382.027L7.11453 625.64C2.45307 634.213 0.0104 643.812 0 653.572V665.005C0.0208333 680.469 6.17186 695.297 17.104 706.234C28.0415 717.166 42.8693 723.317 58.3333 723.338H361.667C377.131 723.317 391.959 717.166 402.896 706.234C413.828 695.297 419.979 680.469 420 665.005V653.572C419.99 643.812 417.547 634.212 412.885 625.64L280 382.027V254.672C290.469 250.98 298.568 242.532 301.817 231.918C305.067 221.304 303.094 209.772 296.489 200.85C289.885 191.923 279.437 186.662 268.333 186.667H211.937L239.937 140H296.729L328.333 192.678L348.328 180.662L316.937 128.334L344.937 81.6676H401.729L429.729 128.334L398.333 180.657C396.115 184.355 396.115 188.98 398.333 192.678L429.729 245L398.333 297.323L418.328 309.339L449.937 256.667H506.729L534.729 303.333L506.729 350H443.333V373.333H513.333C517.427 373.333 521.224 371.187 523.333 367.677L554.937 315H611.729L641.667 364.896V373.333H665V361.666C665 359.552 664.422 357.474 663.333 355.656L631.937 303.333L659.937 256.667H723.333V233.333H659.937L628.333 180.656C626.224 177.146 622.427 175 618.333 175H554.937L526.937 128.333L540.937 105ZM396.671 653.573V665.006C396.671 674.287 392.983 683.194 386.421 689.755C379.858 696.316 370.951 700.005 361.671 700.005H58.338C49.0568 700.005 40.15 696.318 33.5887 689.755C27.0273 683.193 23.3387 674.286 23.3387 665.006V653.573C23.3387 647.714 24.8075 641.954 27.6095 636.808L107.688 490.008H118.667C121.766 490.008 124.735 491.237 126.928 493.425L136.589 503.086C143.136 509.68 152.053 513.373 161.344 513.341H165.333C174.625 513.373 183.541 509.68 190.088 503.086L199.75 493.425C201.942 491.237 204.911 490.008 208.01 490.008H212C215.099 490.008 218.067 491.237 220.26 493.425L229.921 503.086C236.468 509.68 245.385 513.373 254.676 513.341H258.666C267.957 513.373 276.874 509.68 283.42 503.086L293.082 493.425C295.275 491.237 298.243 490.008 301.342 490.008H312.321L392.4 636.808C395.202 641.954 396.671 647.714 396.671 653.573H396.671ZM299.687 466.84C290.994 467.189 282.749 470.788 276.588 476.934L266.927 486.595C264.734 488.783 261.765 490.012 258.666 490.012H254.677C251.578 490.012 248.609 488.783 246.416 486.595L236.755 476.934C230.203 470.35 221.291 466.658 212 466.679H208.01C198.719 466.658 189.808 470.35 183.256 476.934L173.594 486.595C171.402 488.783 168.433 490.012 165.334 490.012H161.344C158.245 490.012 155.277 488.783 153.084 486.595L143.422 476.934C137.261 470.788 129.016 467.189 120.324 466.84L161.917 390.6C162.849 388.887 163.339 386.965 163.339 385.012V280.012H256.672V385.012C256.672 386.965 257.162 388.887 258.094 390.6L299.687 466.84ZM280.004 221.68C280.004 224.774 278.775 227.743 276.587 229.93C274.4 232.118 271.431 233.347 268.337 233.347C261.895 233.347 256.671 238.571 256.671 245.013V256.68H163.337V245.013C163.337 241.92 162.108 238.951 159.921 236.763C157.733 234.576 154.764 233.347 151.671 233.347C145.228 233.347 140.004 228.123 140.004 221.68C140.004 215.237 145.228 210.013 151.671 210.013H268.337C271.431 210.013 274.4 211.243 276.587 213.43C278.775 215.618 280.004 218.586 280.004 221.68ZM421.937 186.68L449.937 140.013H506.729L534.729 186.68L506.729 233.347H449.937L421.937 186.68ZM639.724 245.013L611.724 291.68H554.932L526.932 245.013L554.932 198.347H611.724L639.724 245.013Z" fill="#04E1FA"/>
<path d="M151.67 163.333C160.951 163.333 169.858 159.646 176.42 153.083C182.981 146.521 186.67 137.614 186.67 128.334C186.67 119.054 182.982 110.146 176.42 103.585C169.857 97.0234 160.95 93.3347 151.67 93.3347C142.39 93.3347 133.482 97.0222 126.921 103.585C120.36 110.147 116.671 119.054 116.671 128.334C116.671 137.614 120.358 146.522 126.921 153.083C133.483 159.645 142.39 163.333 151.67 163.333ZM151.67 116.667C156.389 116.667 160.644 119.51 162.446 123.87C164.254 128.229 163.259 133.245 159.92 136.583C156.582 139.922 151.566 140.917 147.207 139.109C142.847 137.307 140.004 133.052 140.004 128.333C140.004 121.891 145.228 116.667 151.67 116.667Z" fill="#04E1FA"/>
<path d="M233.338 93.3333C245.713 93.3333 257.583 88.4167 266.338 79.6667C275.088 70.9115 280.004 59.0413 280.004 46.6667C280.004 34.292 275.088 22.4213 266.338 13.6667C257.582 4.91667 245.712 0 233.338 0C220.963 0 209.092 4.91667 200.338 13.6667C191.588 22.4219 186.671 34.292 186.671 46.6667C186.671 59.0413 191.588 70.912 200.338 79.6667C209.093 88.4167 220.963 93.3333 233.338 93.3333ZM233.338 23.3333C239.525 23.3333 245.463 25.7917 249.838 30.1667C254.213 34.5416 256.671 40.4792 256.671 46.6667C256.671 52.8541 254.213 58.7917 249.838 63.1667C245.463 67.5416 239.525 70 233.338 70C227.15 70 221.212 67.5416 216.838 63.1667C212.463 58.7917 210.004 52.8541 210.004 46.6667C210.004 40.4792 212.463 34.5416 216.838 30.1667C221.212 25.7917 227.15 23.3333 233.338 23.3333Z" fill="#04E1FA"/>
<path d="M58.3372 116.667C73.8066 116.667 88.6439 110.521 99.5879 99.584C110.525 88.6413 116.671 73.8027 116.671 58.3333C116.671 42.864 110.525 28.0267 99.5879 17.0827C88.6452 6.1452 73.8066 0 58.3372 0C42.8679 0 28.0306 6.14587 17.0866 17.0827C6.1491 28.0253 0.00390625 42.864 0.00390625 58.3333C0.0247396 73.7973 6.17578 88.6253 17.1079 99.5627C28.0454 110.495 42.8732 116.645 58.3372 116.667V116.667ZM58.3372 23.3333C67.6184 23.3333 76.5252 27.0208 83.0866 33.5833C89.6479 40.1459 93.3366 49.0527 93.3366 58.3327C93.3366 67.6127 89.6491 76.5207 83.0866 83.082C76.524 89.6433 67.6172 93.332 58.3372 93.332C49.0572 93.332 40.1492 89.6445 33.5879 83.082C27.0266 76.5195 23.3379 67.6127 23.3379 58.3327C23.3379 49.0527 27.0254 40.1447 33.5879 33.5833C40.1504 27.022 49.0572 23.3333 58.3372 23.3333V23.3333Z" fill="#04E1FA"/>
</svg>
